<svg width="421" height="391" viewBox="0 0 421 391" fill="none" xmlns="http://www.w3.org/2000/svg">
<g clip-path="url(#clip0_41_14895)">
<path d="M198.81 390.1H5.71C4.19561 390.1 2.74325 389.498 1.67242 388.428C0.601588 387.357 0 385.904 0 384.39V5.71005C0.0131853 4.20434 0.620588 2.7648 1.68999 1.70475C2.7594 0.644711 4.20424 0.0499911 5.71 0.0500488H198.81C199.56 0.0500488 200.302 0.197741 200.995 0.484695C201.688 0.77165 202.317 1.19225 202.848 1.72247C203.378 2.25269 203.798 2.88216 204.085 3.57493C204.372 4.2677 204.52 5.0102 204.52 5.76005V384.39C204.52 385.14 204.372 385.882 204.085 386.575C203.798 387.268 203.378 387.897 202.848 388.428C202.317 388.958 201.688 389.378 200.995 389.665C200.302 389.952 199.56 390.1 198.81 390.1ZM5.71 0.25005C4.26273 0.252693 2.87549 0.828789 1.85212 1.85217C0.82874 2.87554 0.252643 4.26278 0.25 5.71005V384.39C0.252643 385.837 0.82874 387.225 1.85212 388.248C2.87549 389.271 4.26273 389.847 5.71 389.85H198.81C200.257 389.847 201.645 389.271 202.668 388.248C203.691 387.225 204.267 385.837 204.27 384.39V5.71005C204.267 4.26278 203.691 2.87554 202.668 1.85217C201.645 0.828789 200.257 0.252693 198.81 0.25005H5.71Z" fill="#EBEBEB"/>
<path d="M415.11 390.1H222.01C220.495 390.1 219.043 389.498 217.972 388.428C216.901 387.357 216.3 385.904 216.3 384.39V5.71005C216.313 4.20434 216.92 2.7648 217.99 1.70475C219.059 0.644711 220.504 0.0499911 222.01 0.0500488H415.11C416.624 0.0500488 418.077 0.651637 419.147 1.72247C420.218 2.7933 420.82 4.24566 420.82 5.76005V384.39C420.82 385.14 420.672 385.882 420.385 386.575C420.098 387.268 419.678 387.897 419.147 388.428C418.617 388.958 417.988 389.378 417.295 389.665C416.602 389.952 415.86 390.1 415.11 390.1ZM222.01 0.25005C220.563 0.252693 219.175 0.828789 218.152 1.85217C217.129 2.87554 216.552 4.26278 216.55 5.71005V384.39C216.552 385.837 217.129 387.225 218.152 388.248C219.175 389.271 220.563 389.847 222.01 389.85H415.11C416.557 389.847 417.944 389.271 418.968 388.248C419.991 387.225 420.567 385.837 420.57 384.39V5.71005C420.567 4.26278 419.991 2.87554 418.968 1.85217C417.944 0.828789 416.557 0.252693 415.11 0.25005H222.01Z" fill="#EBEBEB"/>
<path d="M73.46 113.3L75.08 116.57L78.69 117.1L76.08 119.65L76.69 123.25L73.46 121.55L70.23 123.25L70.84 119.65L68.23 117.1L71.84 116.57L73.46 113.3Z" fill="#EBEBEB"/>
<path d="M397.11 267.53L398.73 270.81L402.34 271.33L399.73 273.88L400.34 277.48L397.11 275.78L393.88 277.48L394.49 273.88L391.88 271.33L395.49 270.81L397.11 267.53Z" fill="#F5F5F5"/>
<path d="M333 362.61L334.62 365.89L338.24 366.42L335.62 368.96L336.24 372.57L333 370.87L329.77 372.57L330.39 368.96L327.77 366.42L331.39 365.89L333 362.61Z" fill="#F5F5F5"/>
<path d="M186.35 55.2L186.95 56.42L188.3 56.62C188.375 56.6299 188.446 56.661 188.505 56.7097C188.563 56.7584 188.606 56.8227 188.629 56.8951C188.652 56.9675 188.654 57.045 188.635 57.1185C188.616 57.1919 188.576 57.2584 188.52 57.31L187.52 58.26L187.75 59.6C187.762 59.6746 187.753 59.751 187.724 59.8208C187.695 59.8906 187.648 59.951 187.587 59.9955C187.526 60.04 187.454 60.0667 187.378 60.0728C187.303 60.0789 187.228 60.0641 187.16 60.03L185.96 59.39L184.76 60.03C184.693 60.0641 184.617 60.0789 184.542 60.0728C184.467 60.0667 184.395 60.04 184.334 59.9955C184.273 59.951 184.225 59.8906 184.196 59.8208C184.167 59.751 184.158 59.6746 184.17 59.6L184.39 58.26L183.39 57.31C183.334 57.2577 183.294 57.1905 183.276 57.1162C183.257 57.042 183.259 56.9639 183.284 56.8912C183.308 56.8185 183.353 56.7543 183.412 56.7063C183.472 56.6582 183.544 56.6283 183.62 56.62L184.96 56.42L185.56 55.2C185.584 55.1137 185.636 55.0376 185.707 54.9834C185.778 54.9292 185.866 54.8999 185.955 54.8999C186.045 54.8999 186.132 54.9292 186.203 54.9834C186.275 55.0376 186.326 55.1137 186.35 55.2Z" fill="#EBEBEB"/>
<path d="M21.1901 347.05L21.7901 348.26L23.1301 348.46C23.2062 348.471 23.2778 348.502 23.3368 348.551C23.3958 348.601 23.4397 348.665 23.4637 348.738C23.4877 348.811 23.4907 348.889 23.4724 348.964C23.4541 349.039 23.4152 349.106 23.3601 349.16L22.3601 350.1L22.5901 351.44C22.6019 351.515 22.5929 351.591 22.5641 351.661C22.5352 351.731 22.4877 351.791 22.4267 351.836C22.3656 351.88 22.2935 351.907 22.2183 351.913C22.143 351.919 22.0675 351.904 22.0001 351.87L20.8001 351.24L19.6001 351.87C19.5328 351.904 19.4573 351.919 19.382 351.913C19.3067 351.907 19.2346 351.88 19.1736 351.836C19.1126 351.791 19.065 351.731 19.0362 351.661C19.0073 351.591 18.9983 351.515 19.0101 351.44L19.2401 350.1L18.2401 349.16C18.1853 349.107 18.1463 349.04 18.1274 348.966C18.1086 348.892 18.1108 348.815 18.1336 348.742C18.1565 348.669 18.1991 348.604 18.2568 348.555C18.3145 348.505 18.3849 348.472 18.4601 348.46L19.8001 348.26L20.4101 347.05C20.4369 346.968 20.489 346.896 20.5591 346.845C20.6291 346.794 20.7135 346.767 20.8001 346.767C20.8868 346.767 20.9712 346.794 21.0412 346.845C21.1113 346.896 21.1634 346.968 21.1901 347.05Z" fill="#F5F5F5"/>
<path d="M48.1602 42.3501L48.7602 43.5701L50.1102 43.7601C50.1855 43.7721 50.2559 43.8048 50.3136 43.8546C50.3713 43.9044 50.4139 43.9693 50.4368 44.042C50.4596 44.1147 50.4617 44.1924 50.4429 44.2662C50.4241 44.34 50.3851 44.4072 50.3302 44.4601L49.3302 45.4601L49.5602 46.7901C49.5762 46.8656 49.57 46.9441 49.5424 47.0161C49.5148 47.0882 49.4669 47.1507 49.4045 47.1962C49.3421 47.2416 49.2679 47.2681 49.1909 47.2723C49.1138 47.2765 49.0372 47.2584 48.9702 47.2201L47.7702 46.5901L46.5702 47.2201C46.5033 47.2584 46.4266 47.2765 46.3496 47.2723C46.2725 47.2681 46.1983 47.2416 46.136 47.1962C46.0736 47.1507 46.0257 47.0882 45.9981 47.0161C45.9705 46.9441 45.9643 46.8656 45.9802 46.7901L46.2002 45.4601L45.2002 44.4601C45.1452 44.4065 45.1063 44.3386 45.088 44.264C45.0697 44.1894 45.0727 44.1112 45.0967 44.0383C45.1206 43.9653 45.1646 43.9006 45.2236 43.8514C45.2826 43.8022 45.3542 43.7706 45.4302 43.7601L46.7702 43.5701L47.4102 42.3501C47.4424 42.2774 47.4949 42.2156 47.5615 42.1723C47.628 42.1289 47.7058 42.1058 47.7852 42.1058C47.8647 42.1058 47.9424 42.1289 48.009 42.1723C48.0756 42.2156 48.1281 42.2774 48.1602 42.3501Z" fill="#EBEBEB"/>
<path d="M46.5398 283.37C46.5418 283.634 46.4655 283.892 46.3206 284.112C46.1756 284.332 45.9686 284.504 45.7258 284.606C45.4829 284.708 45.2152 284.736 44.9566 284.686C44.6979 284.636 44.46 284.51 44.273 284.324C44.086 284.138 43.9583 283.901 43.9062 283.643C43.854 283.385 43.8798 283.117 43.9802 282.873C44.0805 282.63 44.251 282.421 44.4699 282.275C44.6888 282.128 44.9464 282.05 45.2098 282.05C45.5609 282.05 45.8976 282.189 46.1468 282.436C46.3959 282.683 46.5372 283.019 46.5398 283.37Z" fill="#EBEBEB"/>
<path d="M236.08 116.94C236.082 117.203 236.006 117.462 235.861 117.682C235.716 117.902 235.509 118.074 235.266 118.176C235.023 118.278 234.755 118.306 234.497 118.256C234.238 118.206 234 118.08 233.813 117.894C233.626 117.708 233.498 117.471 233.446 117.213C233.394 116.955 233.42 116.687 233.52 116.443C233.621 116.2 233.791 115.991 234.01 115.845C234.229 115.698 234.486 115.62 234.75 115.62C234.924 115.619 235.097 115.652 235.258 115.718C235.419 115.783 235.566 115.88 235.69 116.003C235.813 116.126 235.911 116.272 235.978 116.433C236.045 116.593 236.08 116.766 236.08 116.94Z" fill="#EBEBEB"/>
<path d="M167.12 43.45C167.12 43.713 167.042 43.9702 166.896 44.1889C166.75 44.4076 166.542 44.5781 166.299 44.6788C166.056 44.7794 165.788 44.8058 165.53 44.7544C165.272 44.7031 165.036 44.5765 164.85 44.3904C164.663 44.2044 164.537 43.9675 164.486 43.7095C164.434 43.4515 164.461 43.1841 164.561 42.941C164.662 42.698 164.832 42.4903 165.051 42.3441C165.27 42.198 165.527 42.12 165.79 42.12C166.142 42.1226 166.479 42.2636 166.728 42.5124C166.976 42.7613 167.117 43.0981 167.12 43.45Z" fill="#F5F5F5"/>
<path d="M169.216 367.594C173.167 366.661 175.614 362.703 174.681 358.752C173.749 354.801 169.79 352.354 165.839 353.287C161.889 354.219 159.442 358.178 160.374 362.129C161.307 366.079 165.265 368.526 169.216 367.594Z" fill="#F0F0F0"/>
<path d="M165.01 356.14C163.504 356.137 162.037 356.613 160.82 357.5C160.199 358.926 160.046 360.512 160.384 362.03C160.723 363.548 161.534 364.919 162.702 365.946C163.871 366.973 165.335 367.602 166.883 367.743C168.432 367.884 169.986 367.529 171.32 366.73C171.911 365.638 172.207 364.411 172.181 363.169C172.155 361.927 171.807 360.714 171.171 359.647C170.535 358.581 169.632 357.698 168.552 357.085C167.473 356.472 166.252 356.15 165.01 356.15V356.14Z" fill="#E6E6E6"/>
<path d="M108.09 232.69H47.2402V205.22L108.09 132.88H137.21V206.78H152.3V232.69H137.21V255.17H108.09V232.69ZM108.09 206.78V168.94L75.9302 206.78H108.09Z" fill="#0B58F5"/>
<path d="M162.71 194.56C162.71 171.7 166.824 155.7 175.05 146.56C183.277 137.42 195.814 132.853 212.66 132.86C220.747 132.86 227.39 133.86 232.59 135.86C237.314 137.562 241.64 140.213 245.3 143.65C248.386 146.596 251 149.999 253.05 153.74C255.079 157.646 256.608 161.792 257.6 166.08C259.861 175.241 260.99 184.644 260.96 194.08C260.96 215.893 257.27 231.857 249.89 241.97C242.51 252.083 229.8 257.143 211.76 257.15C201.64 257.15 193.464 255.537 187.23 252.31C180.947 249.031 175.654 244.132 171.9 238.12C169 233.693 166.744 227.637 165.13 219.95C163.455 211.592 162.644 203.084 162.71 194.56ZM195.85 194.64C195.85 209.973 197.2 220.43 199.9 226.01C202.6 231.59 206.524 234.393 211.67 234.42C213.304 234.438 214.924 234.132 216.438 233.519C217.952 232.906 219.33 231.999 220.49 230.85C222.984 228.47 224.817 224.71 225.99 219.57C227.164 214.43 227.75 206.43 227.75 195.57C227.75 179.61 226.397 168.88 223.69 163.38C220.984 157.88 216.924 155.133 211.51 155.14C205.99 155.14 201.99 157.943 199.51 163.55C197.03 169.157 195.81 179.52 195.85 194.64Z" fill="#0B58F5"/>
<path d="M332.15 232.69H271.3V205.22L332.15 132.88H361.27V206.78H376.41V232.69H361.27V255.17H332.15V232.69ZM332.15 206.78V168.94L300 206.78H332.15Z" fill="#0B58F5"/>
<g opacity="0.3">
<path d="M161.41 90.6699C161.41 91.0402 161.3 91.4022 161.094 91.7099C160.888 92.0176 160.595 92.2573 160.253 92.3985C159.911 92.5398 159.534 92.5762 159.171 92.5033C158.808 92.4303 158.475 92.2512 158.214 91.9887C157.953 91.7261 157.776 91.392 157.705 91.0286C157.634 90.6652 157.672 90.2889 157.815 89.9474C157.958 89.6059 158.199 89.3145 158.508 89.1102C158.817 88.906 159.18 88.798 159.55 88.8C159.795 88.7999 160.038 88.8484 160.264 88.9425C160.49 89.0366 160.696 89.1745 160.869 89.3483C161.042 89.522 161.178 89.7283 161.271 89.9551C161.364 90.1819 161.411 90.4248 161.41 90.6699Z" fill="#0B58F5"/>
<path d="M33.3698 162.5C34.0988 162.5 34.6898 161.909 34.6898 161.18C34.6898 160.451 34.0988 159.86 33.3698 159.86C32.6408 159.86 32.0498 160.451 32.0498 161.18C32.0498 161.909 32.6408 162.5 33.3698 162.5Z" fill="#0B58F5"/>
<path d="M251.46 355.27C252.504 355.27 253.35 354.424 253.35 353.38C253.35 352.336 252.504 351.49 251.46 351.49C250.416 351.49 249.57 352.336 249.57 353.38C249.57 354.424 250.416 355.27 251.46 355.27Z" fill="#0B58F5"/>
<path d="M296.9 278.37C297.629 278.37 298.22 277.779 298.22 277.05C298.22 276.321 297.629 275.73 296.9 275.73C296.171 275.73 295.58 276.321 295.58 277.05C295.58 277.779 296.171 278.37 296.9 278.37Z" fill="#0B58F5"/>
<path d="M384.58 40.67C384.58 40.931 384.503 41.1863 384.357 41.4033C384.212 41.6204 384.006 41.7896 383.765 41.8895C383.524 41.9894 383.258 42.0155 383.002 41.9646C382.746 41.9137 382.511 41.788 382.327 41.6034C382.142 41.4188 382.016 41.1835 381.965 40.9275C381.914 40.6714 381.941 40.406 382.04 40.1648C382.14 39.9236 382.31 39.7175 382.527 39.5724C382.744 39.4274 382.999 39.35 383.26 39.35C383.61 39.35 383.946 39.489 384.193 39.7366C384.441 39.9841 384.58 40.3199 384.58 40.67Z" fill="#0B58F5"/>
<path d="M133.16 14.05C133.16 14.3111 133.083 14.5663 132.938 14.7833C132.793 15.0004 132.586 15.1696 132.345 15.2695C132.104 15.3694 131.839 15.3956 131.583 15.3446C131.326 15.2937 131.091 15.168 130.907 14.9834C130.722 14.7988 130.596 14.5636 130.545 14.3075C130.494 14.0514 130.521 13.786 130.621 13.5448C130.72 13.3036 130.89 13.0975 131.107 12.9524C131.324 12.8074 131.579 12.73 131.84 12.73C132.189 12.7326 132.524 12.8725 132.771 13.1195C133.017 13.3665 133.157 13.7007 133.16 14.05Z" fill="#0B58F5"/>
<path d="M238.1 83.31C238.829 83.31 239.42 82.719 239.42 81.99C239.42 81.261 238.829 80.67 238.1 80.67C237.371 80.67 236.78 81.261 236.78 81.99C236.78 82.719 237.371 83.31 238.1 83.31Z" fill="#0B58F5"/>
</g>
<path d="M101.64 83.32C113.741 83.32 123.55 73.5106 123.55 61.41C123.55 49.3094 113.741 39.5 101.64 39.5C89.5394 39.5 79.73 49.3094 79.73 61.41C79.73 73.5106 89.5394 83.32 101.64 83.32Z" fill="#0B58F5"/>
<path opacity="0.7" d="M101.64 83.32C113.741 83.32 123.55 73.5106 123.55 61.41C123.55 49.3094 113.741 39.5 101.64 39.5C89.5394 39.5 79.73 49.3094 79.73 61.41C79.73 73.5106 89.5394 83.32 101.64 83.32Z" fill="white"/>
<path opacity="0.2" d="M94.0898 44.88C91.106 44.8708 88.1519 45.4732 85.4098 46.65C82.0398 50.3539 80.0396 55.1 79.7419 60.0987C79.4442 65.0974 80.8671 70.0474 83.7737 74.1251C86.6803 78.2027 90.8955 81.1623 95.7179 82.5113C100.54 83.8604 105.679 83.5176 110.28 81.54C113.132 78.3966 115.01 74.4927 115.687 70.3023C116.363 66.112 115.808 61.8154 114.089 57.9343C112.371 54.0533 109.562 50.7547 106.005 48.4391C102.448 46.1235 98.2944 44.8906 94.0498 44.89L94.0898 44.88Z" fill="#0B58F5"/>
<path opacity="0.2" d="M91.9097 50.67C91.9097 51.0655 91.7924 51.4522 91.5726 51.7811C91.3528 52.11 91.0405 52.3664 90.675 52.5177C90.3096 52.6691 89.9074 52.7087 89.5195 52.6316C89.1315 52.5544 88.7752 52.3639 88.4955 52.0842C88.2157 51.8045 88.0253 51.4481 87.9481 51.0602C87.8709 50.6722 87.9105 50.2701 88.0619 49.9046C88.2133 49.5392 88.4696 49.2268 88.7985 49.007C89.1274 48.7873 89.5141 48.67 89.9097 48.67C90.4401 48.67 90.9488 48.8807 91.3239 49.2558C91.699 49.6308 91.9097 50.1395 91.9097 50.67Z" fill="#0B58F5"/>
<path opacity="0.2" d="M115.47 48.67C115.47 49.0655 115.352 49.4522 115.133 49.7811C114.913 50.11 114.601 50.3664 114.235 50.5177C113.87 50.6691 113.468 50.7087 113.08 50.6316C112.692 50.5544 112.335 50.3639 112.056 50.0842C111.776 49.8045 111.585 49.4481 111.508 49.0602C111.431 48.6722 111.471 48.2701 111.622 47.9046C111.773 47.5392 112.03 47.2268 112.359 47.007C112.687 46.7873 113.074 46.67 113.47 46.67C114 46.67 114.509 46.8807 114.884 47.2558C115.259 47.6308 115.47 48.1395 115.47 48.67Z" fill="#0B58F5"/>
<path opacity="0.2" d="M111.47 62.95C111.47 63.5987 111.277 64.2329 110.917 64.7722C110.556 65.3116 110.044 65.7321 109.445 65.9803C108.846 66.2286 108.186 66.2935 107.55 66.167C106.914 66.0404 106.329 65.728 105.87 65.2693C105.412 64.8106 105.099 64.2261 104.973 63.5899C104.846 62.9536 104.911 62.2941 105.159 61.6948C105.408 61.0954 105.828 60.5832 106.367 60.2228C106.907 59.8624 107.541 59.67 108.19 59.67C109.06 59.67 109.894 60.0155 110.509 60.6307C111.124 61.2458 111.47 62.0801 111.47 62.95Z" fill="#0B58F5"/>
<path opacity="0.2" d="M101.05 72.3C101.05 73.1663 100.793 74.0131 100.312 74.7334C99.8306 75.4537 99.1465 76.0151 98.3462 76.3466C97.5459 76.6781 96.6652 76.7648 95.8155 76.5958C94.9659 76.4268 94.1855 76.0097 93.5729 75.3971C92.9604 74.7845 92.5432 74.0041 92.3742 73.1545C92.2052 72.3048 92.2919 71.4242 92.6235 70.6238C92.955 69.8235 93.5164 69.1394 94.2366 68.6581C94.9569 68.1769 95.8038 67.92 96.67 67.92C97.8317 67.92 98.9458 68.3814 99.7672 69.2029C100.589 70.0243 101.05 71.1383 101.05 72.3Z" fill="#0B58F5"/>
<path d="M361.309 325.686C363.749 315.35 357.347 304.993 347.011 302.553C336.674 300.113 326.317 306.515 323.878 316.851C321.438 327.188 327.84 337.545 338.176 339.984C348.513 342.424 358.87 336.022 361.309 325.686Z" fill="#0B58F5"/>
<path opacity="0.3" d="M361.309 325.686C363.749 315.35 357.347 304.993 347.011 302.553C336.674 300.113 326.317 306.515 323.878 316.851C321.438 327.188 327.84 337.545 338.176 339.984C348.513 342.424 358.87 336.022 361.309 325.686Z" fill="white"/>
<path opacity="0.4" d="M354.74 306.39C350.477 305.103 345.9 305.337 341.79 307.05C337.68 308.764 334.292 311.851 332.206 315.785C330.12 319.719 329.465 324.255 330.352 328.619C331.239 332.983 333.613 336.903 337.07 339.71C338.863 340.254 340.726 340.531 342.6 340.53C346.57 340.529 350.442 339.299 353.686 337.01C356.929 334.72 359.384 331.483 360.714 327.743C362.044 324.002 362.184 319.942 361.114 316.119C360.045 312.295 357.818 308.897 354.74 306.39Z" fill="#0B58F5"/>
<path d="M324.24 327.05C303.71 336.71 319.02 344.16 347.95 333.76C374.74 324.13 384.95 311.99 360.95 315.76C362.24 320.81 328.69 333.88 324.24 327.05Z" fill="#0B58F5"/>
<path opacity="0.2" d="M354.51 132.88C327.62 151.05 292.81 175.05 283.2 232.69H281.15C290.5 175.69 324.04 151.12 350.94 132.88H354.51Z" fill="black"/>
<path d="M215.41 313.32C198.41 313.32 181.6 305.65 173.41 293.13C168.36 285.39 162.49 269.18 179.97 247.55L181.52 248.81C169.16 264.11 166.88 279.46 175.09 292.04C185.09 307.34 208.68 315.04 228.82 309.56C249.45 303.95 261.97 286.01 263.18 260.34C267.31 172.53 313.96 145.48 348.02 125.73C369.19 113.46 384.48 104.6 381.12 85.8901C380.65 83.3001 379.62 81.5101 377.95 80.4101C373.6 77.5401 365.1 79.5301 355.26 81.8201C335.95 86.3201 309.51 92.4801 293.76 65.6901L295.49 64.6901C310.49 90.2201 335.06 84.4901 354.81 79.8901C365.1 77.5001 373.98 75.4301 379.05 78.7601C381.2 80.1701 382.52 82.4001 383.05 85.5601C386.66 105.64 370.05 115.28 349 127.48C315.33 147 269.23 173.73 265.15 260.48C263.89 287.08 250.83 305.69 229.31 311.54C224.776 312.747 220.102 313.346 215.41 313.32Z" fill="#0B58F5"/>
<path opacity="0.2" d="M215.41 313.32C198.41 313.32 181.6 305.65 173.41 293.13C168.36 285.39 162.49 269.18 179.97 247.55L181.52 248.81C169.16 264.11 166.88 279.46 175.09 292.04C185.09 307.34 208.68 315.04 228.82 309.56C249.45 303.95 261.97 286.01 263.18 260.34C267.31 172.53 313.96 145.48 348.02 125.73C369.19 113.46 384.48 104.6 381.12 85.8901C380.65 83.3001 379.62 81.5101 377.95 80.4101C373.6 77.5401 365.1 79.5301 355.26 81.8201C335.95 86.3201 309.51 92.4801 293.76 65.6901L295.49 64.6901C310.49 90.2201 335.06 84.4901 354.81 79.8901C365.1 77.5001 373.98 75.4301 379.05 78.7601C381.2 80.1701 382.52 82.4001 383.05 85.5601C386.66 105.64 370.05 115.28 349 127.48C315.33 147 269.23 173.73 265.15 260.48C263.89 287.08 250.83 305.69 229.31 311.54C224.776 312.747 220.102 313.346 215.41 313.32Z" fill="white"/>
<path d="M273.17 42.05C277.778 42.0766 282.355 42.7946 286.75 44.18C286.75 44.18 297.75 62.95 299.05 67.25C298.59 71.49 291.44 78.44 291.44 78.44L273.17 42.05Z" fill="#0B58F5"/>
<path opacity="0.3" d="M273.17 42.05C277.778 42.0766 282.355 42.7946 286.75 44.18C286.75 44.18 297.75 62.95 299.05 67.25C298.59 71.49 291.44 78.44 291.44 78.44L273.17 42.05Z" fill="white"/>
<path d="M305.75 133.18C301.514 128 297.651 122.527 294.19 116.8C293.35 115.353 292.553 113.88 291.8 112.38C291.37 111.53 290.96 110.68 290.56 109.82C290.035 108.983 289.628 108.078 289.35 107.13C288.15 94.4601 292.49 85.1301 288.35 74.9601L271.87 81.4001C271.87 81.4001 273.27 99.5201 276.47 110.4C278.47 117.13 282.95 122.95 287.28 128.34C288.63 130.02 289.93 131.75 291.28 133.44C292.63 135.13 293.99 136.5 295.28 138.09C297.23 140.5 297.87 142.81 296.4 145.65L296.15 146.1C295.73 146.84 297.69 147.68 298.93 146.1C300.93 143.52 300.65 143.68 302.39 141.48C303.45 140.15 304.66 138.7 305.71 137.48C306.217 136.88 306.498 136.122 306.505 135.337C306.512 134.552 306.245 133.789 305.75 133.18Z" fill="#0B58F5"/>
<path opacity="0.7" d="M305.75 133.18C301.514 128 297.651 122.527 294.19 116.8C293.35 115.353 292.553 113.88 291.8 112.38C291.37 111.53 290.96 110.68 290.56 109.82C290.035 108.983 289.628 108.078 289.35 107.13C288.15 94.4601 292.49 85.1301 288.35 74.9601L271.87 81.4001C271.87 81.4001 273.27 99.5201 276.47 110.4C278.47 117.13 282.95 122.95 287.28 128.34C288.63 130.02 289.93 131.75 291.28 133.44C292.63 135.13 293.99 136.5 295.28 138.09C297.23 140.5 297.87 142.81 296.4 145.65L296.15 146.1C295.73 146.84 297.69 147.68 298.93 146.1C300.93 143.52 300.65 143.68 302.39 141.48C303.45 140.15 304.66 138.7 305.71 137.48C306.217 136.88 306.498 136.122 306.505 135.337C306.512 134.552 306.245 133.789 305.75 133.18Z" fill="white"/>
<path opacity="0.3" d="M301.72 127.97C299.105 130.773 296.202 133.294 293.06 135.49C293.49 135.97 293.91 136.49 294.34 136.95C297.486 134.825 300.343 132.3 302.84 129.44L301.72 127.97Z" fill="#0B58F5"/>
<path opacity="0.3" d="M305.75 133.18L305.63 133.04C304.86 133.923 304.413 135.04 304.36 136.21C304.295 137.013 304.426 137.819 304.74 138.56L305.69 137.43C306.186 136.836 306.463 136.09 306.474 135.316C306.485 134.542 306.229 133.788 305.75 133.18Z" fill="#0B58F5"/>
<path d="M269.25 54.05C267.463 56.7251 265.32 59.1441 262.88 61.24C261.527 62.4064 260.044 63.413 258.46 64.24C257.628 64.6663 256.766 65.0307 255.88 65.33L255.2 65.55L254.98 65.61L254.51 65.74C254.221 65.8087 253.926 65.8555 253.63 65.88C252.786 65.9446 251.938 65.8668 251.12 65.65C250.089 65.3573 249.1 64.9303 248.18 64.38C247.44 63.9472 246.722 63.4766 246.03 62.97C244.78 62.0401 243.584 61.0384 242.45 59.97C240.263 57.8975 238.255 55.6427 236.45 53.23C236.102 52.76 235.93 52.1834 235.962 51.5997C235.994 51.0159 236.229 50.4617 236.626 50.0326C237.023 49.6035 237.557 49.3265 238.137 49.2494C238.716 49.1722 239.305 49.2998 239.8 49.61H239.88C242.24 51.11 244.62 52.69 246.94 54.1C248.12 54.79 249.26 55.49 250.39 56.03C250.906 56.3001 251.437 56.5405 251.98 56.75C252.318 56.8994 252.681 56.9875 253.05 57.01C253.11 57.01 253.05 56.94 252.68 56.95C252.563 56.9431 252.447 56.9431 252.33 56.95L252.11 57L252.44 56.83C252.884 56.591 253.315 56.3272 253.73 56.04C254.625 55.4091 255.461 54.6997 256.23 53.92C257.977 52.0892 259.613 50.1558 261.13 48.13C261.961 47.2003 263.109 46.6147 264.35 46.488C265.591 46.3613 266.834 46.7027 267.835 47.4453C268.837 48.1879 269.525 49.278 269.765 50.5017C270.004 51.7255 269.778 52.9946 269.13 54.06L269.25 54.05Z" fill="#0B58F5"/>
<path opacity="0.7" d="M269.25 54.05C267.463 56.7251 265.32 59.1441 262.88 61.24C261.527 62.4064 260.044 63.413 258.46 64.24C257.628 64.6663 256.766 65.0307 255.88 65.33L255.2 65.55L254.98 65.61L254.51 65.74C254.221 65.8087 253.926 65.8555 253.63 65.88C252.786 65.9446 251.938 65.8668 251.12 65.65C250.089 65.3573 249.1 64.9303 248.18 64.38C247.44 63.9472 246.722 63.4766 246.03 62.97C244.78 62.0401 243.584 61.0384 242.45 59.97C240.263 57.8975 238.255 55.6427 236.45 53.23C236.102 52.76 235.93 52.1834 235.962 51.5997C235.994 51.0159 236.229 50.4617 236.626 50.0326C237.023 49.6035 237.557 49.3265 238.137 49.2494C238.716 49.1722 239.305 49.2998 239.8 49.61H239.88C242.24 51.11 244.62 52.69 246.94 54.1C248.12 54.79 249.26 55.49 250.39 56.03C250.906 56.3001 251.437 56.5405 251.98 56.75C252.318 56.8994 252.681 56.9875 253.05 57.01C253.11 57.01 253.05 56.94 252.68 56.95C252.563 56.9431 252.447 56.9431 252.33 56.95L252.11 57L252.44 56.83C252.884 56.591 253.315 56.3272 253.73 56.04C254.625 55.4091 255.461 54.6997 256.23 53.92C257.977 52.0892 259.613 50.1558 261.13 48.13C261.961 47.2003 263.109 46.6147 264.35 46.488C265.591 46.3613 266.834 46.7027 267.835 47.4453C268.837 48.1879 269.525 49.278 269.765 50.5017C270.004 51.7255 269.778 52.9946 269.13 54.06L269.25 54.05Z" fill="white"/>
<path d="M232.7 47.47L233.87 49.47C233.87 49.47 234.76 52.09 236.55 52.57L241.41 51L241.16 50.59C240.54 49.65 240.61 47.82 240.82 46.3C241.03 44.78 240.25 44.73 239.67 45.11C239.259 45.5828 238.971 46.1494 238.83 46.76C238.592 46.4298 238.327 46.1188 238.04 45.83L236.56 44.35C236.25 44.0465 235.836 43.8717 235.402 43.8606C234.968 43.8494 234.546 44.0028 234.22 44.29L233.02 45.36C232.735 45.6233 232.549 45.9756 232.491 46.359C232.432 46.7424 232.506 47.1341 232.7 47.47Z" fill="#0B58F5"/>
<path opacity="0.7" d="M232.7 47.47L233.87 49.47C233.87 49.47 234.76 52.09 236.55 52.57L241.41 51L241.16 50.59C240.54 49.65 240.61 47.82 240.82 46.3C241.03 44.78 240.25 44.73 239.67 45.11C239.259 45.5828 238.971 46.1494 238.83 46.76C238.592 46.4298 238.327 46.1188 238.04 45.83L236.56 44.35C236.25 44.0465 235.836 43.8717 235.402 43.8606C234.968 43.8494 234.546 44.0028 234.22 44.29L233.02 45.36C232.735 45.6233 232.549 45.9756 232.491 46.359C232.432 46.7424 232.506 47.1341 232.7 47.47Z" fill="white"/>
<path d="M278.08 40.27C272.689 41.6989 267.526 43.8767 262.74 46.74C261.993 47.2073 261.407 47.8916 261.061 48.7013C260.714 49.5109 260.623 50.4072 260.8 51.27C262.73 60.71 267.12 73.35 271.86 81.4L293.97 72.25C294.12 68.35 288.75 55.73 283.28 43.53C282.3 41.34 280.41 39.71 278.08 40.27Z" fill="#0B58F5"/>
<path opacity="0.8" d="M278.08 40.27C272.689 41.6989 267.526 43.8767 262.74 46.74C261.993 47.2073 261.407 47.8916 261.061 48.7013C260.714 49.5109 260.623 50.4072 260.8 51.27C262.73 60.71 267.12 73.35 271.86 81.4L293.97 72.25C294.12 68.35 288.75 55.73 283.28 43.53C282.3 41.34 280.41 39.71 278.08 40.27Z" fill="white"/>
<path opacity="0.3" d="M286.71 51.26L282.32 49.79C283.32 52.36 286.85 55.61 289.32 57.52C288.52 55.52 287.63 53.42 286.71 51.26Z" fill="#0B58F5"/>
<path d="M276.63 30.3701C274.8 26.8901 270.85 25.1401 266.11 25.5301C262.11 25.8701 258.57 29.9501 258.99 32.1501C259.41 34.3501 262.77 35.2901 263.41 36.0501L260.64 38.0501C260.312 38.2869 260.035 38.5877 259.826 38.9343C259.617 39.281 259.481 39.6663 259.425 40.067C259.369 40.4678 259.394 40.8758 259.5 41.2664C259.606 41.6571 259.789 42.0223 260.04 42.3401C261.21 43.8201 262.75 45.3401 263.64 46.4601C271.3 46.2601 276.97 43.3401 279.02 40.5301C278.25 36.9701 278.41 33.8301 276.63 30.3701Z" fill="#0B58F5"/>
<path opacity="0.8" d="M276.63 30.3701C274.8 26.8901 270.85 25.1401 266.11 25.5301C262.11 25.8701 258.57 29.9501 258.99 32.1501C259.41 34.3501 262.77 35.2901 263.41 36.0501L260.64 38.0501C260.312 38.2869 260.035 38.5877 259.826 38.9343C259.617 39.281 259.481 39.6663 259.425 40.067C259.369 40.4678 259.394 40.8758 259.5 41.2664C259.606 41.6571 259.789 42.0223 260.04 42.3401C261.21 43.8201 262.75 45.3401 263.64 46.4601C271.3 46.2601 276.97 43.3401 279.02 40.5301C278.25 36.9701 278.41 33.8301 276.63 30.3701Z" fill="white"/>
<path d="M272.87 32.53C273.414 33.9247 273.532 35.4492 273.209 36.9109C272.887 38.3726 272.138 39.7059 271.058 40.7423C269.978 41.7787 268.615 42.4715 267.141 42.7334C265.667 42.9952 264.149 42.8142 262.778 42.2133C261.407 41.6123 260.245 40.6184 259.439 39.3572C258.633 38.096 258.218 36.6241 258.249 35.1275C258.279 33.6309 258.752 32.1769 259.608 30.9492C260.465 29.7215 261.666 28.7752 263.06 28.23C264.931 27.5011 267.015 27.5444 268.854 28.3507C270.694 29.1569 272.138 30.66 272.87 32.53Z" fill="#263238"/>
<path d="M337.8 122.65C337.69 119.36 337.54 119.65 337.45 116.88C337.39 115.18 337.38 113.29 337.37 111.66C337.366 110.886 337.096 110.137 336.604 109.539C336.112 108.942 335.429 108.532 334.67 108.38C333.35 108.11 332.02 107.86 330.67 107.58C328.94 107.21 327.23 106.81 325.54 106.32C324.22 105.94 322.92 105.52 321.63 105.05C320.34 104.58 318.89 104.05 317.55 103.43C315.97 102.76 314.41 102.04 312.87 101.29C311.14 100.47 309.43 99.6101 307.72 98.7401C301.14 87.8501 301 80.6701 293.94 72.2501L278.78 79.1101C278.78 79.1101 289.92 98.8701 297.5 107.25C301.87 112.07 308.72 114.25 314.83 115.83C319.24 116.96 323.71 117.83 328.18 118.66C329.92 118.98 331.81 119.1 333.31 120.14C334.42 120.991 335.181 122.218 335.45 123.59C335.516 123.87 335.576 124.15 335.63 124.43C335.82 125.27 337.87 124.63 337.8 122.65Z" fill="#0B58F5"/>
<path opacity="0.8" d="M337.8 122.65C337.69 119.36 337.54 119.65 337.45 116.88C337.39 115.18 337.38 113.29 337.37 111.66C337.366 110.886 337.096 110.137 336.604 109.539C336.112 108.942 335.429 108.532 334.67 108.38C333.35 108.11 332.02 107.86 330.67 107.58C328.94 107.21 327.23 106.81 325.54 106.32C324.22 105.94 322.92 105.52 321.63 105.05C320.34 104.58 318.89 104.05 317.55 103.43C315.97 102.76 314.41 102.04 312.87 101.29C311.14 100.47 309.43 99.6101 307.72 98.7401C301.14 87.8501 301 80.6701 293.94 72.2501L278.78 79.1101C278.78 79.1101 289.92 98.8701 297.5 107.25C301.87 112.07 308.72 114.25 314.83 115.83C319.24 116.96 323.71 117.83 328.18 118.66C329.92 118.98 331.81 119.1 333.31 120.14C334.42 120.991 335.181 122.218 335.45 123.59C335.516 123.87 335.576 124.15 335.63 124.43C335.82 125.27 337.87 124.63 337.8 122.65Z" fill="white"/>
<path opacity="0.3" d="M330.11 107.45C329.51 107.32 328.91 107.19 328.3 107.04C328.35 110.5 326.73 116.46 326.14 118.27L328.04 118.63C329.285 115.028 329.983 111.259 330.11 107.45Z" fill="#0B58F5"/>
<path opacity="0.3" d="M337.41 111.66C337.407 110.887 337.138 110.139 336.648 109.542C336.158 108.944 335.477 108.534 334.72 108.38L333.72 108.19C333.881 109.327 334.463 110.362 335.35 111.09C335.921 111.618 336.605 112.008 337.35 112.23C337.41 112.05 337.41 111.85 337.41 111.66Z" fill="#0B58F5"/>
<path d="M271.46 32.59C271.86 34.11 270.16 35.7 268.81 34.39C267.55 33.0391 266.171 31.8041 264.69 30.7C263.3 29.83 265.15 28.31 267.34 28.9C268.275 29.1348 269.138 29.5934 269.856 30.2362C270.573 30.8791 271.124 31.6869 271.46 32.59Z" fill="white"/>
<path d="M271.57 80.9101C270.87 81.1701 272.15 82.3701 272.15 82.3701C272.15 82.3701 286.15 77.5801 294.65 72.6501C294.671 72.3516 294.62 72.0525 294.501 71.7777C294.383 71.5029 294.201 71.2603 293.97 71.0701C286.695 74.7706 279.217 78.0559 271.57 80.9101Z" fill="#0B58F5"/>
<path opacity="0.5" d="M271.57 80.9101C270.87 81.1701 272.15 82.3701 272.15 82.3701C272.15 82.3701 286.15 77.5801 294.65 72.6501C294.671 72.3516 294.62 72.0525 294.501 71.7777C294.383 71.5029 294.201 71.2603 293.97 71.0701C286.695 74.7706 279.217 78.0559 271.57 80.9101Z" fill="white"/>
<path d="M281.87 39.61C284.63 41.01 287.22 42.48 289.87 44.11C291.16 44.93 292.44 45.7601 293.71 46.6601C294.98 47.5601 296.24 48.4801 297.51 49.5201L297.98 49.9101L298.57 50.4501C298.922 50.7646 299.256 51.0985 299.57 51.4501C299.89 51.8001 300.16 52.1401 300.42 52.4501C300.68 52.7601 300.96 53.1301 301.19 53.4501C302.122 54.7356 302.983 56.0709 303.77 57.4501C305.32 60.1244 306.657 62.9163 307.77 65.8001C307.976 66.3449 307.986 66.9442 307.8 67.496C307.614 68.0478 307.242 68.518 306.749 68.8268C306.255 69.1356 305.669 69.2638 305.092 69.1896C304.514 69.1155 303.98 68.8435 303.58 68.4201L303.53 68.3601C301.53 66.23 299.6 63.9901 297.66 61.9001C295.72 59.8101 293.75 57.6901 292.12 56.7601C289.85 55.3501 287.32 53.9401 284.81 52.5601L277.25 48.36C276.078 47.7394 275.2 46.6786 274.81 45.4108C274.42 44.1431 274.549 42.7723 275.17 41.6001C275.791 40.4278 276.852 39.5501 278.119 39.16C279.387 38.7699 280.758 38.8994 281.93 39.5201L281.87 39.61Z" fill="#0B58F5"/>
<path opacity="0.8" d="M281.87 39.61C284.63 41.01 287.22 42.48 289.87 44.11C291.16 44.93 292.44 45.7601 293.71 46.6601C294.98 47.5601 296.24 48.4801 297.51 49.5201L297.98 49.9101L298.57 50.4501C298.922 50.7646 299.256 51.0985 299.57 51.4501C299.89 51.8001 300.16 52.1401 300.42 52.4501C300.68 52.7601 300.96 53.1301 301.19 53.4501C302.122 54.7356 302.983 56.0709 303.77 57.4501C305.32 60.1244 306.657 62.9163 307.77 65.8001C307.976 66.3449 307.986 66.9442 307.8 67.496C307.614 68.0478 307.242 68.518 306.749 68.8268C306.255 69.1356 305.669 69.2638 305.092 69.1896C304.514 69.1155 303.98 68.8435 303.58 68.4201L303.53 68.3601C301.53 66.23 299.6 63.9901 297.66 61.9001C295.72 59.8101 293.75 57.6901 292.12 56.7601C289.85 55.3501 287.32 53.9401 284.81 52.5601L277.25 48.36C276.078 47.7394 275.2 46.6786 274.81 45.4108C274.42 44.1431 274.549 42.7723 275.17 41.6001C275.791 40.4278 276.852 39.5501 278.119 39.16C279.387 38.7699 280.758 38.8994 281.93 39.5201L281.87 39.61Z" fill="white"/>
<path d="M310.14 70.7901L309.29 68.6601C309.29 68.6601 308.82 65.9401 307.13 65.1801L302.13 65.9701L302.3 66.4101C302.76 67.4101 302.41 69.2401 301.96 70.7001C301.51 72.1601 302.27 72.3501 302.91 72.0601C303.27 71.9001 303.62 71.2501 304 70.5601C304.186 70.9077 304.397 71.2418 304.63 71.5601L305.86 73.2501C306.117 73.6003 306.497 73.8403 306.924 73.9219C307.35 74.0035 307.792 73.9207 308.16 73.6901L309.52 72.8201C309.838 72.6022 310.073 72.2826 310.186 71.9137C310.298 71.5448 310.282 71.1486 310.14 70.7901Z" fill="#0B58F5"/>
<path opacity="0.8" d="M310.14 70.7901L309.29 68.6601C309.29 68.6601 308.82 65.9401 307.13 65.1801L302.13 65.9701L302.3 66.4101C302.76 67.4101 302.41 69.2401 301.96 70.7001C301.51 72.1601 302.27 72.3501 302.91 72.0601C303.27 71.9001 303.62 71.2501 304 70.5601C304.186 70.9077 304.397 71.2418 304.63 71.5601L305.86 73.2501C306.117 73.6003 306.497 73.8403 306.924 73.9219C307.35 74.0035 307.792 73.9207 308.16 73.6901L309.52 72.8201C309.838 72.6022 310.073 72.2826 310.186 71.9137C310.298 71.5448 310.282 71.1486 310.14 70.7901Z" fill="white"/>
<path opacity="0.3" d="M277.65 51.11L276.43 51.2101L268.94 69.29C269.349 69.3195 269.761 69.2858 270.16 69.19C270.16 69.19 279.92 65.55 282.87 64.19C280.89 60.1 277.65 51.11 277.65 51.11Z" fill="#0B58F5"/>
<path d="M263.98 55.8501C264.89 60.5763 266.58 65.1182 268.98 69.2901C272.64 68.0301 278.74 65.6501 281.7 64.2901C279.71 60.025 277.945 55.6591 276.41 51.2101C273.28 51.4201 266.41 54.0501 263.98 55.8501Z" fill="white"/>
<path opacity="0.3" d="M271.41 59.7601C271.264 60.2491 270.976 60.6838 270.582 61.0091C270.189 61.3344 269.708 61.5358 269.2 61.5877C268.693 61.6396 268.181 61.5398 267.73 61.3008C267.279 61.0618 266.909 60.6944 266.667 60.2451C266.425 59.7958 266.321 59.2848 266.37 58.7767C266.418 58.2686 266.616 57.7862 266.938 57.3906C267.261 56.9951 267.694 56.7041 268.182 56.5544C268.67 56.4048 269.191 56.4033 269.68 56.5501C270.335 56.7467 270.885 57.1952 271.209 57.7971C271.533 58.399 271.606 59.105 271.41 59.7601Z" fill="#0B58F5"/>
<path opacity="0.6" d="M273.32 56.3201C273.281 56.487 273.192 56.6382 273.066 56.7539C272.939 56.8696 272.781 56.9444 272.611 56.9684C272.441 56.9924 272.268 56.9646 272.115 56.8885C271.961 56.8124 271.834 56.6917 271.75 56.5421C271.667 56.3925 271.63 56.2212 271.646 56.0504C271.661 55.8797 271.728 55.7177 271.837 55.5855C271.946 55.4533 272.092 55.3573 272.257 55.3099C272.422 55.2625 272.597 55.2661 272.76 55.3201C272.962 55.3849 273.133 55.5241 273.237 55.7097C273.341 55.8953 273.37 56.1134 273.32 56.3201Z" fill="#0B58F5"/>
<path opacity="0.6" d="M275.56 55.45C275.537 55.566 275.489 55.6759 275.421 55.7725C275.352 55.8691 275.265 55.9504 275.163 56.0111C275.061 56.0718 274.948 56.1106 274.831 56.1251C274.713 56.1396 274.594 56.1293 274.481 56.0951C274.368 56.0608 274.263 56.0033 274.173 55.9261C274.083 55.849 274.011 55.7539 273.96 55.6471C273.909 55.5402 273.881 55.4239 273.877 55.3056C273.874 55.1873 273.895 55.0696 273.94 54.96C273.972 54.8542 274.025 54.7558 274.095 54.6703C274.165 54.5848 274.251 54.5141 274.349 54.462C274.446 54.41 274.553 54.3778 274.663 54.3671C274.773 54.3565 274.884 54.3677 274.99 54.4C275.204 54.4649 275.384 54.6115 275.491 54.808C275.597 55.0046 275.622 55.2352 275.56 55.45Z" fill="#0B58F5"/>
<path opacity="0.5" d="M278.7 63.23L269.45 66.89L268.89 65.07L278.14 61.41L278.7 63.23Z" fill="#0B58F5"/>
<path opacity="0.2" d="M227.67 202.22C227.649 208.043 227.086 213.851 225.99 219.57C224.81 224.71 222.977 228.47 220.49 230.85C219.332 232 217.957 232.908 216.444 233.52C214.931 234.133 213.312 234.439 211.68 234.42C206.54 234.42 202.617 231.617 199.91 226.01C199.435 225.003 199.03 223.964 198.7 222.9C192.984 227.81 187.661 233.159 182.78 238.9L177.47 245.16C180.328 248.056 183.625 250.483 187.24 252.35C193.467 255.57 201.64 257.183 211.76 257.19C213.54 257.19 215.26 257.14 216.93 257.04C223.053 247.981 228.119 238.251 232.03 228.04L246.88 189.32L227.67 202.22Z" fill="black"/>
<path d="M93.8003 255.05L111.3 272.55L160.3 226.38C143.41 219.93 110.57 238.24 93.8003 255.05Z" fill="#263238"/>
<path d="M154.83 316.05C149.24 310.45 137.33 298.55 137.33 298.55L183.5 249.55C189.91 266.4 171.6 299.27 154.83 316.05Z" fill="#263238"/>
<path d="M221.81 205.75L240.9 168.94L204.09 188.05C192.267 194.182 181.35 201.922 171.65 211.05L108.9 270.12L139.73 300.95L198.8 238.2C207.933 228.498 215.676 217.578 221.81 205.75Z" fill="#0B58F5"/>
<path opacity="0.6" d="M221.81 205.75L240.9 168.94L204.09 188.05C192.267 194.182 181.35 201.922 171.65 211.05L108.9 270.12L139.73 300.95L198.8 238.2C207.933 228.498 215.676 217.578 221.81 205.75Z" fill="white"/>
<path d="M182.6 240.13C189.725 240.13 195.5 234.354 195.5 227.23C195.5 220.106 189.725 214.33 182.6 214.33C175.476 214.33 169.7 220.106 169.7 227.23C169.7 234.354 175.476 240.13 182.6 240.13Z" fill="white"/>
<path d="M182.6 235.52C187.179 235.52 190.89 231.808 190.89 227.23C190.89 222.652 187.179 218.94 182.6 218.94C178.022 218.94 174.31 222.652 174.31 227.23C174.31 231.808 178.022 235.52 182.6 235.52Z" fill="#0B58F5"/>
<path opacity="0.3" d="M150.15 289.86L119.97 259.68L144.68 236.42L173.41 265.15L150.15 289.86Z" fill="#0B58F5"/>
<path d="M100.63 282.67C78.0302 284.5 70.5402 298.97 67.9802 318.2C66.6802 328.01 66.1002 337.94 57.8702 343.68C57.3751 344.016 57.0023 344.504 56.8077 345.07C56.6131 345.637 56.6071 346.25 56.7907 346.82C56.9742 347.39 57.3374 347.885 57.8259 348.231C58.3143 348.577 58.9018 348.756 59.5002 348.74C89.8402 347.79 103.99 332.94 105.77 326.74C105.303 329.981 104.468 333.158 103.28 336.21C103.062 336.749 103.019 337.342 103.158 337.906C103.297 338.471 103.61 338.977 104.054 339.352C104.497 339.728 105.047 339.954 105.627 339.999C106.206 340.043 106.785 339.904 107.28 339.6C115.79 334.27 126.47 324.45 127.18 308.52C120.92 299.65 100.63 282.67 100.63 282.67Z" fill="#0B58F5"/>
<path opacity="0.2" d="M100.63 282.67C78.0302 284.5 70.5402 298.97 67.9802 318.2C66.6802 328.01 66.1002 337.94 57.8702 343.68C57.3751 344.016 57.0023 344.504 56.8077 345.07C56.6131 345.637 56.6071 346.25 56.7907 346.82C56.9742 347.39 57.3374 347.885 57.8259 348.231C58.3143 348.577 58.9018 348.756 59.5002 348.74C89.8402 347.79 103.99 332.94 105.77 326.74C105.303 329.981 104.468 333.158 103.28 336.21C103.062 336.749 103.019 337.342 103.158 337.906C103.297 338.471 103.61 338.977 104.054 339.352C104.497 339.728 105.047 339.954 105.627 339.999C106.206 340.043 106.785 339.904 107.28 339.6C115.79 334.27 126.47 324.45 127.18 308.52C120.92 299.65 100.63 282.67 100.63 282.67Z" fill="white"/>
<path d="M130.68 315.35L94.4902 279.15L113.77 274.98L134.85 296.06L130.68 315.35Z" fill="#0B58F5"/>
</g>
<defs>
<clipPath id="clip0_41_14895">
<rect width="420.81" height="390.09" fill="white"/>
</clipPath>
</defs>
</svg>
